<?xml version="1.0" encoding="UTF-8" standalone="no"?>
<!-- Created with Inkscape (http://www.inkscape.org/) -->

<svg
   xmlns:dc="http://purl.org/dc/elements/1.1/"
   xmlns:cc="http://creativecommons.org/ns#"
   xmlns:rdf="http://www.w3.org/1999/02/22-rdf-syntax-ns#"
   xmlns:svg="http://www.w3.org/2000/svg"
   xmlns="http://www.w3.org/2000/svg"
   xmlns:sodipodi="http://sodipodi.sourceforge.net/DTD/sodipodi-0.dtd"
   xmlns:inkscape="http://www.inkscape.org/namespaces/inkscape"
   version="1.1"
   width="52"
   height="48.924122"
   id="svg2"
   inkscape:version="0.91 r13725"
   sodipodi:docname="PawPrint.svg">
  <sodipodi:namedview
     pagecolor="#ffffff"
     bordercolor="#666666"
     borderopacity="1"
     objecttolerance="10"
     gridtolerance="10"
     guidetolerance="10"
     inkscape:pageopacity="0"
     inkscape:pageshadow="2"
     inkscape:window-width="1280"
     inkscape:window-height="662"
     id="pawprint"
     showgrid="false"
     inkscape:zoom="10.076829"
     inkscape:cx="26"
     inkscape:cy="24.462061"
     inkscape:window-x="-8"
     inkscape:window-y="-8"
     inkscape:window-maximized="1"
     inkscape:current-layer="svg2"
     fit-margin-top="2"
     fit-margin-right="2"
     fit-margin-bottom="2"
     fit-margin-left="2" />
  <defs
     id="defs4" />
  <path
     inkscape:connector-curvature="0"
     d="m 46.456957,14.204576 c 1.917818,0.58614 3.271952,2.44117 3.442487,4.41311 0.185042,1.77195 -0.234339,3.5531 -0.83084,5.21163 -0.970553,2.42496 -2.719742,4.54485 -4.932761,5.9335 -1.672399,0.91281 -3.757651,0.52543 -5.288441,-0.49794 -0.626204,-0.3 -1.007856,-0.86835 -1.277546,-1.48755 -1.01932,-2.02819 -1.162372,-4.49698 -0.23594,-6.58547 0.78311,-1.9667 1.746754,-3.97395 3.398422,-5.35911 1.252272,-1.13814 2.888902,-2.06773 4.639454,-1.88539 0.370943,0.0377 0.736531,0.12523 1.085165,0.25722 z"
     style="fill:#000000;fill-opacity:1;fill-rule:evenodd;stroke:#000000;stroke-width:0.11272797px;stroke-linecap:butt;stroke-linejoin:miter;stroke-opacity:0"
     id="path2075-9" />
  <path
     inkscape:connector-curvature="0"
     d="m 37.392658,2.6963665 c 0,0 4.08639,1.2078 3.64353,5.87796 0,0 0.232034,3.7512395 -1.98848,7.1674095 0,0 -2.24898,4.21328 -5.238132,4.66877 0,0 -3.302301,1.02485 -5.693623,-4.04247 0,0 -1.708086,-5.75056 0.939448,-9.6222195 0,0 3.091127,-5.74309 8.337257,-4.04945 z"
     style="fill:#000000;fill-opacity:1;fill-rule:evenodd;stroke:#ff0000;stroke-width:0.11272797px;stroke-linecap:butt;stroke-linejoin:miter;stroke-opacity:0"
     id="path2073-7" />
  <path
     inkscape:connector-curvature="0"
     d="m 21.081506,2.0565065 c 0,0 3.321449,0.0201 5.153277,4.26756 0,0 1.264028,2.75475 0.82533,6.9851095 0,0 -0.06861,4.25882 -2.602272,5.99538 0,0 -3.444642,3.13149 -7.40171,-1.08179 0,0 -2.761406,-2.96068 -3.3023,-7.1455 0,0 -0.597831,-4.3271495 2.078171,-6.9177495 0,0 2.270265,-2.12314 5.249504,-2.10301 z"
     style="fill:#000000;fill-rule:evenodd;stroke:#000000;stroke-width:0.11272797px;stroke-linecap:butt;stroke-linejoin:miter;stroke-opacity:1"
     id="path2071-2" />
  <path
     inkscape:connector-curvature="0"
     d="m 2.2831807,17.026526 c 0.5782686,-2.03075 2.2175011,-3.90925 4.3938307,-4.18411 1.5559583,-0.20068 3.1660699,0.19441 4.5358906,0.92911 2.498127,1.6637 3.952189,4.47995 4.77437,7.29119 0.414387,1.3443 0.696282,2.78159 0.354831,4.17542 -0.31556,1.64606 -1.509492,3.04077 -3.045962,3.68246 -1.995695,1.19974 -4.6420851,1.03749 -6.5449546,-0.27394 -1.1318317,-0.74963 -2.1348187,-1.72805 -2.7435699,-2.9545 -1.4416769,-2.59986 -2.4140864,-5.68904 -1.7244358,-8.66563 z"
     style="fill:#000000;fill-rule:evenodd;stroke:#000000;stroke-width:0.11272797px;stroke-linecap:butt;stroke-linejoin:miter;stroke-opacity:1"
     id="path2040-5" />
  <path
     inkscape:connector-curvature="0"
     d="m 25.674624,20.779116 c 2.708211,0.31624 5.904563,0.92169 7.334454,3.5406 1.044117,1.54381 1.953031,3.19967 3.255186,4.5504 2.308015,1.16789 4.607553,2.5704 6.263437,4.58843 2.078128,3.10735 1.44887,7.55827 -0.966688,10.28702 -2.704761,2.47635 -6.597799,3.71346 -10.202949,2.79729 -2.304283,-0.46068 -4.601887,-1.81635 -6.999364,-1.05902 -2.217744,0.6224 -4.418662,1.60304 -6.780465,1.33995 -2.24515,-0.0761 -4.259609,-1.17409 -6.148248,-2.27813 -2.2020358,-1.41347 -3.5779416,-3.9693 -3.4288082,-6.59548 0.00755,-3.94239 2.9715542,-7.2108 6.3094462,-8.94109 1.424536,-0.69234 2.920141,-1.44439 3.597326,-2.98189 0.96826,-1.77366 1.817572,-4.00153 3.968925,-4.60641 1.214116,-0.44178 2.510436,-0.61886 3.797748,-0.64167 z"
     style="fill:#000000;fill-opacity:1;fill-rule:evenodd;stroke:#000000;stroke-width:0.11272797px;stroke-linecap:butt;stroke-linejoin:miter;stroke-opacity:1"
     id="path2078-6" />
  <metadata
     id="metadata5692">
    <rdf:RDF>
      <cc:Work
         rdf:about="">
        <dc:title></dc:title>
        <dc:format>image/svg+xml</dc:format>
        <dc:type
           rdf:resource="http://purl.org/dc/dcmitype/StillImage" />
      </cc:Work>
    </rdf:RDF>
  </metadata>
</svg>
